<svg xmlns="http://www.w3.org/2000/svg" viewBox="0 0 400 80">
  <!-- Icon -->
  <g transform="translate(0, 5) scale(0.23)">
    <path fill="#1a3a5c" d="M18 129.94c.35-4.83 4.72-20.96 6.73-25.53 2.95-6.69 6.47-15.64 10.58-21.65 2.24-3.27 4.2-6.79 6.59-9.56 2.37-2.75 4.27-6.29 7.02-9.05 2.63-2.63 4.92-5.67 7.71-8.35 2.56-2.45 5.64-5.79 8.34-7.72 3.01-2.15 6.06-4.77 9.15-7.02 3.27-2.38 6.34-4.18 9.75-6.3 5.95-3.71 14.8-7.94 21.67-10.46 17.04-6.25 37.72-9.66 55.8-8.28 35.38 2.69 64.02 15.57 88.85 39.9 4.76 4.67 10.43 11.42 14.76 17.47 1.98 2.78 4.88 6.76 6.38 9.68 1.7 3.33 4.3 7.04 5.68 10.36 1.37 3.29 3.99 8.03 4.93 11.23.55 1.87 1.58 4.12 2.01 6.02 1.41 6.21 3.74 13.54 4.46 19.7.15 1.32.5 2.05.53 3.52.04 1.91-.7 1.52-2.21 1.76-1.05.17-6.57.85-7.3.51-.04-.04-2.03-11.49-2.45-13.1-2.71-10.34-3.2-13.13-7.74-23.22-.84-1.87-4.45-9.32-5.39-10.08l-5.97 3.59-3.5-5.25 5.88-4.2c-.04-.86-5.26-7.97-6.3-9.15-.9-1.02-2.68-3.35-3.38-4.37-.19-.27-3.13-3.42-3.66-3.96-2.07-2.12-14.85-14.33-16.31-14.5l-.13-.11c-.53.7-4 5.39-4.3 5.6l-4.15-2.94c.03-.54 1.83-3.71 2.22-4.49 1.39-2.74 1.92-1.69-.84-3.49-2.49-1.62-5.66-3.72-8.18-4.99-2.72-1.38-5.95-3.46-8.83-4.36-1.22-.38-8.33-4.14-9.1-3.64-.45.72-.14 26.43-.14 29.58 0 2.67-.38 13.03.02 14.84.12.52 8.54 6.13 8.62 6.23l9.14-7.35.21.26c.21 2.99-1.37 7.94-1.5 11.31-.12 3.11.12 2.04 2.03 4.13 1.02 1.13 2.14 2.06 3.13 3.22 2.23 2.62 6.28 7.84 8.22 10.93.31.51 2.1 3.73 2.4 3.86l10.7-3.84.13.29-4.91 7.55c1.58 1.03 20.56 9.85 23.89 11.11 2.36.9 4.25 1.69 4.38 4.38.12 2.49.55 5.46.73 7.87.13 1.78.43 16.46.6 16.77l41.65-6.06c-.03-1.83-.15-7.55-.44-8.97-.25-1.22-.23-3.33-.54-4.2-.12-.32-.6-3.53-.65-4.03-.41-4.74-2.28-10.84-3.19-15.63-.84-4.38-2.91-9.7-4.46-14.44-.91-2.75-4.11-11.12-5.39-13.47-1.12-2.05-2.09-4.29-3.23-6.29-.97-1.7-2.59-4.32-3.44-5.96-2.19-4.25-4.75-7.53-7.43-11.42-2.22-3.2-5.67-7.62-8.25-10.59-2.91-3.35-6.26-6.51-9.02-9.83-1.9-2.29-7.56-6.89-10.03-8.91-3.43-2.79-7.62-5.33-10.81-8.03-3.02-2.56-8.24-5.11-11.64-7.21-3.9-2.4-8.27-4.52-12.46-6.36-11.6-5.09-16.36-6.32-28.44-9.37C177.11 1.34 163.66-.03 153.37 0c-22.91.07-40.98 4.49-62.22 13.36C75.54 19.88 57.97 32.3 46.22 43.9c-1.48 1.48-3.09 3.52-4.63 4.89-1.75 1.55-2.82 3.34-4.39 5.04-2.55 2.77-6.1 7.27-8.36 10.49-1.31 1.86-2.76 3.7-3.91 5.49-1.09 1.71-2.51 4.14-3.67 5.75-2.3 3.2-4.65 8.61-6.52 12.31-3.96 7.84-7.84 19.12-9.97 27.83-1.29 5.32-2.23 10.19-3.28 15.53-.45 2.28-1.91 16-1.31 17.33l.05.31 50.68-7.6c.48.68.08 12.95.26 14.99.21 2.39.14 4.87.36 7.26.21 2.16.51 4.83.6 6.97.13 3.41.8 2.72 3.52 4.11 1.64.84 3.39 1.71 4.95 2.58.86.48 10.37 4.8 10.55 4.8-.02-1.29-2.88-10.07-3.27-14.02-.52-5.25-1.6-10.2-1.61-15.52 0-3.23.54-13 1.41-15.72.57-1.8.93-5.15 1.47-7.17.41-1.52 2.2-5.26 1.98-6.84zm18.81-9.21.09-.33-6.12-1.45-.29.12-.84 2.69zm133.94 161.64c.44-3.08.22-14.29-.67-17.21-.52-1.68-.27-2.51-1.99-.72-2.13 2.22-4.2 4.76-6.36 7.04-2.67 2.81-5.91 6.28-8.47 9.47-.78.98-1.32 1.59-1.96 2.62-.5.79-1.68 1.41-2.28 2.17-1.31 1.65-2.79 3.13-4.19 4.73-5.46 6.2-5.47 4.16.87 8.88 1.66 1.23 3.54 2.64 5.24 3.79 2.94 1.97 1.91 2.96 5.03.35 1.67-1.39 3.66-2.42 5.31-3.71 3.16-2.48 5.12-3.46 7.94-5.55 1.45-1.08 1.47-1.12 1.49-2.95.03-2.3-.24-6.94.04-8.91m-.98-94.37c-2.08 1.42-8.57 10.18-11.33 12.94-3.23 3.23-7.89 9.55-11.11 12.9-2.36 2.46-9.7 10.45-10.74 13.48-1.32 3.87-1.26 6.74-.97 10.86.13 1.7.69 9.64 1.48 10.57.7.83 2.52-1.84 3.1-2.58.89-1.12 1.87-2.14 2.82-3.23 1.78-2.07 3.72-4.53 5.61-6.48 3.61-3.72 8.17-8.81 11.38-12.82 3.41-4.26 8.27-8.89 10.4-13.81 1.09-2.52.84-8.32.83-11.28 0-3.68-.45-7.11-1.47-10.55m1.48-22.06c.7-3.66-.15-7.97-.48-11.46-.13-1.39-.13-4.91-1.61-3.01-2.46 3.15-5.61 6.1-8.47 9.68-1.7 2.13-4.29 4.39-5.74 6.35-3.47 4.7-7.86 8.84-11.2 13-4.37 5.44-8.12 8.3-8.17 15.97-.03 3.97.05 7.4.84 11.28.16.81.52 4.95 1.61 3.53.75-.98 2.29-2.19 2.9-3.16 1.19-1.89 4.2-4.33 5.78-6.3 1.77-2.21 3.83-4.46 5.66-6.45 2.03-2.21 3.71-4.18 5.63-6.47 1.58-1.88 3.94-4.67 5.62-6.47 1.92-2.06 3.95-4.25 5.52-6.58.46-.69 1.74-3.31 1.95-4.12.41-1.62-.11-4.35.16-5.79m-35.18 121.51c.57-.07 20.94-22.7 23.34-25.64 3.1-3.81 8.94-9.18 10.75-13.64 1.54-3.78 1.3-18.38-.23-22.27-.45-1.16-2.33 1.68-3.01 2.37-1.1 1.1-4.96 5.42-5.78 6.52-.76 1.03-2.29 2.13-2.88 3.15-.36.62-4.84 5.76-5.61 6.6-1.89 2.09-3.55 4.46-5.53 6.67-3.58 4.02-8.76 8.91-10.78 13.64-2.3 5.38-.67 16.74-.27 22.6m83.2-27.56c2.49.29 19.17-14.02 21.8-16.47 3.52-3.28 6.11-6.36 9.26-9.88 2.81-3.14 2.03-2.3-1.48-4.52-3.3-2.09-2.9-1.74-.27-4.87 1.26-1.48.68-2.75 5.34 1.28 2.7 2.33 2.73-.01 4.51-2.54 4.76-6.73 10.74-17.11 13.35-24.75 1.22-3.58 4.34-11.31 4.54-14.74-3.43.03-7.32 1.5-10.29 1.62-3.04.12-7.08 1.39-10.2 1.62-2.68.19-7.62.93-10.27 1.54-3.15.72-7.01.72-10.14 1.55-1.48.39-4.01-.21-4.73 1.24-.61 1.27-1.19 2.64-2.06 3.81-1.61 2.19-3.08 4.67-4.72 6.98-3.05 4.3-3.9 2.8-.77 6.95.69.92 4.94 6.25 4.95 6.84-2.75-.48-5.65-1.31-8.44-1.84-4.42-.84-3.74-2.01-7.06 1.03-1.81 1.66-3.54 3.21-5.49 4.72-3.53 2.72-2.56 3.3-2.55 7.65 0 4.14-.33 39.74.2 40.52l.17.33 9.15-4.61c.1-.67-2.36-4.46-2.75-5.47-.54-1.4.68-1.5 1.57-2.29 2.06-1.85 2.25-1.36 2.68-1.62zM109.04 33.74c-1.22-.05-8.94 4.06-10.46 4.58-.61.22-4.79 2.13-5.13 2.44-.73.68 1.76 3.86 2.3 4.78 1.54 2.6.46 2.19-2.15 3.6-2.68 1.45-2.63-.09-4.11-2.3-2.79-4.15-1.65-2.74-8.42 1.18-4.71 2.72-12.65 9.55-16.53 13.5-1.3 1.33-2.53 2.39-3.73 3.81-.87 1.05-2.6 3.03-3.54 3.9-2.28 2.1-2.83 2.12-.98 3.98.85.87 3.76 2.47 4.1 3.37l-3.27 4.77c-.48-.09-5.46-3.23-6.3-3.74-2.46 2.08-8.13 11.71-10.42 15.9-1.9 3.49-7.59 16.32-7.6 18.89l6.4 2.19-1.81 5.98c6.38-.67 13.14-1.62 19.49-2.64 3.16-.5 6.24-1.15 9.43-1.55 1.61-.19 3.16-.49 4.75-.79 1.63-.3 3.3.18 4.08-1.42 1.91-3.91 5.93-10.74 8.46-13.55 3.93-4.35 1.95-3 .19-6.5-.38-.76-4.22-6.03-3.97-6.68.74-.66 7.89 1.46 8.91 1.92 4.49 2.01 4.02 1.03 7.17-1.64 2.16-1.83 4.03-3.36 6.25-4.95 1.09-.78 2.31-1.56 3.34-2.31.49-.36 3.2-1.87 3.43-2.12.14-.15.54-43.85.12-44.6m142.06 97.32c-1.42-.73-3.6-1.8-5.06-2.37-2-.79-9.26-4.51-10.5-4.45-.03 1.2 1.46 4.98 1.8 6.48.51 2.26 1 4.52 1.43 6.81.86 4.49 1.35 10.43 1.34 15.01-.01 4.72-.39 10.5-1.31 15.16-.49 2.44-2.44 10.97-3.53 12.8-2.3 3.83.95 1.93 3.33 1.63 2.32-.28 4.79-.65 7.08-1.13 2.21-.45 4.91-.75 7.18-1.06 1.86-.25 5.19-1.1 6.72-1.17 4.39-.2 9.92-1.41 14.54-1.99 3.33-.42 11.49-2.31 14.18-2.09.35 3.87-3.56 15.73-4.77 19.96-1.52 5.34-4.65 12.55-7.25 17.53-1.27 2.42-2.85 5.88-4.34 8.06-1.54 2.28-3.47 5.3-4.8 7.59-2.62 4.53-7.4 9.53-10.81 13.89-1.19 1.53-4.58 4.79-6.11 6.28-6.27 6.06-13.33 12.04-20.27 16.82-4 2.74-11.14 7.01-15.74 9.06-2.22 1-15.97 7.64-17.44 7.23l-.01-54.32c-.41 0-15.13 6.74-15.29 7.09-.3.68-.1 19.99-.1 22.49 0 4.39-.23 44.46.11 45.06.57 1.04 15.71-3.5 17.66-4.05 5.37-1.53 10.71-3.98 16.02-6.37 4.46-2.01 11.06-4.89 15.02-7.61 4.61-3.16 9.72-5.53 13.67-8.85 4.09-3.43 8.99-6.57 12.37-10.24 3.11-3.37 7.69-7.01 11.27-11.34 1.66-1.99 3.67-4 5.22-6.08 1.46-1.95 3.46-4.44 5-6.3 2.86-3.44 6.49-9.4 8.79-13.73 2.75-5.15 5.4-9.63 7.59-15.01 2.09-5.11 4.39-10.86 5.95-16.68 1.53-5.72 3.39-12.72 4.09-18.54.32-2.73 2.88-18.89 2.02-20.18l-.06-.36-51.13 7.63c-.13-.84.39-12.42.39-14.55-.01-4.13-.33-9.85-.93-13.96-.56-3.72-.41-2.65-3.32-4.15m-107.27-29.31c-4.29-2.38-10.52-8.13-14.93-11.19-1.06-.73-2.5-1.16-2.33-2.84.31-2.91.07-7.18.07-10.25.01-6.91 0-13.82.01-20.72.01-3.38.18-6.85.2-10.11.01-2.27-.54-2.74 1.37-3.85 1.46-.86 8.64-6.65 8.88-6.42.22.21-.08 8.8-.08 9.96v41.45c0 4.46.31 3.98 2.89 7.42.95 1.27 3.7 5.19 3.92 6.55m37.59-67.3c-.45-.72-5.76-5.47-6.96-6.53-2.49-2.2-1.69-1.63-5.22-1.63-11.27 0-22.7.12-33.92 0-1.77-.02-2.9 1.44-4.08 2.78-.74.86-2.55 2.07-3.59 3.15-2.36 2.47-4.63 4.52-7.05 6.53-2.11 1.74-1.49 2.39-1.5 5.3v33.92c.01 3.58-.4 10.38.01 13.57.13.98 12.53 11.41 14.16 12.97 1.7 1.63 2.27 1.85 2.46 4.37.16 2.19.06 4.46.06 6.67l-.09 40.66c0 4.48-.18 8.91.33 13.34.07.61 1.11 5.39 1.31 5.57.43.37 2.38-3.02 2.91-3.57 2.11-2.14 4.44-5.41 6.35-7.23.63-.61 2.94-2.96 3.29-3.59.58-1.02 2.39-2.47 3.27-3.44 4.08-4.54 8.43-9.86 12.67-14.51 2.13-2.33 5.37-4.84 5.34-8.19-.02-2.57-.08-26.65.11-27.1.01-.04 3.11-3.27 3.35-3.5 1.14-1.11 2.6-2.18 3.59-3.15 2.17-2.09 4.55-4.58 6.83-6.76 2.26-2.15 1.82-1.81 1.82-5.01l.09-33.81c0-4.53.37-8.69.36-13.19 0-2.89-.19-2.55-2.34-4.43-.32-.29-3.54-3.17-3.56-3.19M41.81 150.36c-.3-.17-33.3 4.46-36.55 5.01-6.07 1.01-5.33-.73-5.11 4.81.28 7.11 2.15 20.7 4.18 27.04 1.4 4.35 2.78 12.41 4.75 16.2 2.38 4.57 3.75 9.94 6.28 14.53 2.48 4.48 4.48 9.16 7.36 13.48 2.64 3.94 5.43 8.67 8.63 12.19 1.65 1.82 3.06 4.06 4.62 5.89 1.59 1.87 3.36 3.66 4.9 5.51 2.88 3.48 7.05 6.79 10.59 10.24 5.51 5.36 17.73 14.12 24.3 17.46 4.73 2.42 8.71 5.08 13.72 7.21 10.95 4.65 18.98 8.26 31.03 10.63 5.28 1.03 3.97 1.55 4.02-4.72.02-1.35.33-9.66.13-10.16-.04-.03-9.9-2.88-10.94-3.16-2.79-.77-7.45-2.54-10.25-3.72-5.25-2.22-14.33-5.82-18.78-9.18-1.2-.9-3.15-1.61-4.49-2.57-1.47-1.05-2.68-1.81-4.17-2.76-2.89-1.85-5.56-3.98-8.11-5.88-5.14-3.82-9.65-8.85-14.58-13.38-1.09-1-2.51-2.53-3.33-3.71-.93-1.34-2.38-2.33-3.27-3.66-1.75-2.63-4.41-5.15-6-8-1.44-2.56-3.92-5.67-5.59-8.38-1.75-2.84-3.35-6.49-4.91-9.08-2.99-4.95-6.17-13.77-8.26-19.67-1.08-3.05-5.71-21.01-4.67-22.94l-.02-.21 9.54-1.15 1.82 10.54c.4 3.05 1.57 6.54 2.59 9.41l5.91-2.01 2.53 6.18-6.32 2.34c-.02.6 3.51 8.98 4.05 10.04 1.3 2.55 3.75 6.86 4.73 9.38.84 2.17 10.29 16 11.55 16.69l5.26-4.32c.16.07 3.56 4.25 2.93 5.11-.6.79-4.1 3.4-4.21 4.02.1 1.4 20.15 19.3 24.24 21 1.32.55 8.54 5.65 9.47 5.6 1.79-1.12 1.48-7.37 6.23-4.62 1.94 1.13 2.48 1.43 1.48 3.59-.26.57-1.89 4.02-1.89 4.21.49 1.3 25.16 10.46 27.16 9.95l.05-41.88-14.61-6.71-8.39 8.4-.2-.19c-.59-.83.67-12.96.07-13.77-.31-.42-3.26-2.35-4.07-3.17-.79-.82-2.88-2.7-3.81-3.42-2.59-1.99-4.72-4.99-7.2-7.28-1.58-1.46-8.89 2.36-11.29 2.35-.02-.57 3.54-7.42 4.11-8.7 1.23-2.78.98-1.68-.52-4.21-.23-.4-2.45-3.65-2.59-3.75-1.45-.97-7-3.25-8.75-4.02-1.03-.44-3.79-1.97-4.32-2.09-1.15-.26-11.18-5.02-13.33-5.86-1.61-.64-2.84-1.37-4.4-2.05-3.11-1.34-1.56-1.52-2.19-4.17-.83-3.46-.94-24.14-1.11-24.46"/>
  </g>
  <!-- Text -->
  <text x="85" y="35" font-family="Arial, sans-serif" font-size="22" font-weight="700" fill="#1a3a5c">DISCOS Y BROCAS</text>
  <text x="85" y="58" font-family="Arial, sans-serif" font-size="16" font-weight="600" fill="#6b7280">DEL ISTMO</text>
</svg>
